<?xml version="1.0" encoding="UTF-8"?>
<svg xmlns="http://www.w3.org/2000/svg" xmlns:xlink="http://www.w3.org/1999/xlink" viewBox="0 0 48 48" width="48px" height="48px">
<g id="surface260758225">
<path style=" stroke:none;fill-rule:nonzero;fill:rgb(99.607843%,98.431373%,98.431373%);fill-opacity:1;" d="M 18.148438 6.71875 C 18.148438 6.71875 12.039062 7.140625 8.039062 10.351562 C 8.019531 10.359375 8 10.367188 7.980469 10.378906 C 7.285156 11.019531 6.765625 12.015625 6.121094 13.441406 C 5.476562 14.863281 4.792969 16.699219 4.171875 18.75 C 2.929688 22.855469 1.921875 27.894531 1.921875 32.640625 C 1.917969 32.808594 1.957031 32.972656 2.039062 33.121094 C 3.441406 35.582031 6.023438 37.074219 8.429688 38.011719 C 10.835938 38.949219 13.0625 39.324219 14.191406 39.359375 C 14.507812 39.371094 14.8125 39.226562 15 38.96875 L 17.339844 35.730469 C 19.226562 36.175781 21.4375 36.480469 24 36.480469 C 26.5625 36.480469 28.773438 36.175781 30.660156 35.730469 L 33 38.96875 C 33.1875 39.226562 33.492188 39.371094 33.808594 39.359375 C 34.9375 39.324219 37.164062 38.949219 39.570312 38.011719 C 41.976562 37.074219 44.558594 35.582031 45.960938 33.121094 C 46.042969 32.972656 46.082031 32.808594 46.078125 32.640625 C 46.078125 27.894531 45.070312 22.855469 43.828125 18.75 C 43.207031 16.699219 42.523438 14.863281 41.878906 13.441406 C 41.234375 12.015625 40.714844 11.019531 40.019531 10.378906 C 40 10.367188 39.980469 10.359375 39.960938 10.351562 C 35.960938 7.140625 29.851562 6.71875 29.851562 6.71875 C 29.777344 6.710938 29.710938 6.710938 29.640625 6.71875 C 29.304688 6.765625 29.023438 6.984375 28.890625 7.289062 C 28.890625 7.289062 28.5625 8.007812 28.351562 9.03125 C 26.480469 8.730469 24.902344 8.640625 24 8.640625 C 23.097656 8.640625 21.519531 8.730469 19.648438 9.03125 C 19.4375 8.007812 19.109375 7.289062 19.109375 7.289062 C 18.945312 6.914062 18.558594 6.6875 18.148438 6.71875 Z M 17.550781 8.789062 C 17.621094 8.984375 17.671875 9.167969 17.730469 9.390625 C 15.566406 9.890625 13.195312 10.714844 10.980469 12.089844 C 10.632812 12.234375 10.402344 12.574219 10.390625 12.953125 C 10.382812 13.328125 10.597656 13.675781 10.933594 13.839844 C 11.277344 14.003906 11.679688 13.953125 11.96875 13.710938 C 16.417969 10.953125 22.078125 10.558594 24 10.558594 C 25.921875 10.558594 31.582031 10.953125 36.03125 13.710938 C 36.320312 13.953125 36.722656 14.003906 37.066406 13.839844 C 37.402344 13.675781 37.617188 13.328125 37.609375 12.953125 C 37.597656 12.574219 37.367188 12.234375 37.019531 12.089844 C 34.804688 10.714844 32.433594 9.890625 30.269531 9.390625 C 30.328125 9.167969 30.378906 8.984375 30.449219 8.789062 C 31.546875 8.925781 35.800781 9.5 38.699219 11.789062 C 38.886719 11.960938 39.539062 12.921875 40.140625 14.25 C 40.738281 15.578125 41.371094 17.304688 41.96875 19.289062 C 43.140625 23.160156 44.085938 27.933594 44.128906 32.308594 C 43.039062 34.078125 40.992188 35.390625 38.878906 36.210938 C 36.960938 36.957031 35.167969 37.289062 34.230469 37.378906 L 32.609375 35.191406 C 33.433594 34.921875 34.175781 34.636719 34.828125 34.351562 C 37.253906 33.285156 38.550781 32.160156 38.550781 32.160156 C 38.949219 31.804688 38.980469 31.191406 38.625 30.796875 C 38.269531 30.398438 37.65625 30.363281 37.261719 30.71875 C 37.261719 30.71875 36.253906 31.640625 34.050781 32.609375 C 33.238281 32.964844 32.257812 33.320312 31.140625 33.628906 C 30.882812 33.601562 30.621094 33.675781 30.421875 33.839844 C 28.632812 34.273438 26.503906 34.558594 24 34.558594 C 21.476562 34.558594 19.347656 34.25 17.550781 33.808594 C 17.347656 33.675781 17.101562 33.617188 16.859375 33.660156 C 15.738281 33.347656 14.765625 32.964844 13.949219 32.609375 C 11.746094 31.640625 10.738281 30.71875 10.738281 30.71875 C 10.523438 30.515625 10.222656 30.429688 9.929688 30.480469 C 9.558594 30.535156 9.25 30.800781 9.148438 31.167969 C 9.046875 31.527344 9.164062 31.917969 9.449219 32.160156 C 9.449219 32.160156 10.746094 33.285156 13.171875 34.351562 C 13.824219 34.636719 14.566406 34.921875 15.390625 35.191406 L 13.769531 37.378906 C 12.832031 37.289062 11.039062 36.957031 9.121094 36.210938 C 7.007812 35.390625 4.960938 34.078125 3.871094 32.308594 C 3.914062 27.933594 4.859375 23.160156 6.03125 19.289062 C 6.628906 17.304688 7.261719 15.578125 7.859375 14.25 C 8.460938 12.921875 9.113281 11.960938 9.300781 11.789062 C 12.199219 9.5 16.453125 8.925781 17.550781 8.789062 Z M 17.761719 20.160156 C 15.3125 20.160156 13.441406 22.382812 13.441406 24.960938 C 13.441406 27.535156 15.3125 29.761719 17.761719 29.761719 C 20.207031 29.761719 22.078125 27.535156 22.078125 24.960938 C 22.078125 22.382812 20.207031 20.160156 17.761719 20.160156 Z M 30.238281 20.160156 C 27.792969 20.160156 25.921875 22.382812 25.921875 24.960938 C 25.921875 27.535156 27.792969 29.761719 30.238281 29.761719 C 32.6875 29.761719 34.558594 27.535156 34.558594 24.960938 C 34.558594 22.382812 32.6875 20.160156 30.238281 20.160156 Z M 17.761719 22.078125 C 19.023438 22.078125 20.160156 23.296875 20.160156 24.960938 C 20.160156 26.625 19.023438 27.839844 17.761719 27.839844 C 16.496094 27.839844 15.359375 26.625 15.359375 24.960938 C 15.359375 23.296875 16.496094 22.078125 17.761719 22.078125 Z M 30.238281 22.078125 C 31.503906 22.078125 32.640625 23.296875 32.640625 24.960938 C 32.640625 26.625 31.503906 27.839844 30.238281 27.839844 C 28.976562 27.839844 27.839844 26.625 27.839844 24.960938 C 27.839844 23.296875 28.976562 22.078125 30.238281 22.078125 Z M 30.238281 22.078125 "/>
</g>
</svg>
